# xmcd
#
# Track frame offsets: 
#        150
#        13805
#        32789
#        43256
#        52533
#        65975
#        79187
#        94674
#        107756
#        121281
#        136355
#        147900
#
# Disc length: 2171 seconds
#
# Revision: 2
# Processed by: cddbd v1.4PL0 Copyright (c) Steve Scherf et al.
# Submitted via: ExactAudioCopy v0.90b4
#
DISCID=a608790c
DTITLE=FLEETWOOD MAC - Peter Green's Fleetwood Mac
DYEAR=1968
DGENRE=Blues
TTITLE0=My Heart Beat Like a Hammer
TTITLE1=Merry Go Round
TTITLE2=Long Grey Mare
TTITLE3=Hellbound on My Trail
TTITLE4=Shake Your Moneymaker
TTITLE5=Looking for Somebody
TTITLE6=No Place To Go
TTITLE7=My Baby's Good To Me
TTITLE8=I Loved another Woman
TTITLE9=Cold Black Night
TTITLE10=The World Keep On Turning
TTITLE11=Got To Move
EXTD=
EXTT0=
EXTT1=
EXTT2=
EXTT3=
EXTT4=
EXTT5=
EXTT6=
EXTT7=
EXTT8=
EXTT9=
EXTT10=
EXTT11=
PLAYORDER=
